HIERARCHY
ROOT Hips
{
	OFFSET 0.00000 0.00000 0.00000
	CHANNELS 6 Xposition Yposition Zposition Yrotation Zrotation Xrotation 
	JOINT Lumbar
	{
		OFFSET 0 0 0
		CHANNELS 3 Zrotation Xrotation Yrotation
		JOINT Neck
		{
			OFFSET 0.00 0.2701 0.00
			CHANNELS 3 Zrotation Xrotation Yrotation
			End Site
			{
				OFFSET 0.00 0.1379 0.00
			}
		}
		JOINT RightShoulder
		{
			OFFSET 0.0119 0.2289 0.1181
			CHANNELS 3 Zrotation Xrotation Yrotation
			JOINT RightElbow
			{
				OFFSET 0.00 -0.1475 0.00
				CHANNELS 2 Zrotation Yrotation
				JOINT RightWrist
				{
					OFFSET 0.00 -0.1605 0.00
					CHANNELS 2 Zrotation Xrotation
					End Site
					{
						OFFSET 0.0040 -0.1068 0.0006
					}
				}
			}
		}
		JOINT LeftShoulder
		{
			OFFSET 0.0119 0.2289 -0.1181
			CHANNELS 3 Zrotation Xrotation Yrotation
			JOINT LeftElbow
			{
				OFFSET 0.00 -0.1475 0.00
				CHANNELS 2 Zrotation Yrotation
				JOINT LeftWrist
				{
					OFFSET 0.00 -0.1605 0.00
					CHANNELS 2 Zrotation Xrotation
					End Site
					{
						OFFSET 0.0040 -0.1068 -0.0006
					}
				}
			}
		}
	}
	JOINT RightHip
	{
		OFFSET 0.0316 -0.0424 0.0458
		CHANNELS 3 Zrotation Xrotation Yrotation
		JOINT RightKnee
		{
			OFFSET 0.00 -0.2438 0.00
			CHANNELS 1 Zrotation
			JOINT RightAnkle
			{
				OFFSET 0.00 -0.2449 0.00
				CHANNELS 3 Zrotation Xrotation Yrotation
				End Site
				{
					OFFSET 0.1237 -0.0542 0.0051
				}
			}
		}
	}
	JOINT LeftHip
	{
		OFFSET 0.0316 -0.0424 -0.0458
		CHANNELS 3 Zrotation Xrotation Yrotation
		JOINT LeftKnee
		{
			OFFSET 0.00 -0.2438 0.00
			CHANNELS 1 Zrotation
			JOINT LeftAnkle
			{
				OFFSET 0.00 -0.2449 0.00
				CHANNELS 3 Zrotation Xrotation Yrotation
				End Site
				{
					OFFSET 0.1237 -0.0542 -0.0051
				}
			}
		}
	}
}
MOTION
Frames: 26
Frame Time: 0.02
0 0.57926 0 183.30337 0 -3.87137 0.93881 2.78829 -6.59828 -29.15711 4.90767 3.2279 -7.27003 -70.60371 -68.78915 22.1316 78.38679 -17.57424 -2.17164 3.77625 64.50771 61.42297 21.76752 -74.4442 -28.72739 2.21034 -4.02416 2.4701 6.92974 -6.19344 -2.08562 -2.66287 -5.82754 -0.95751 6.49056 -5.94317 -7.68311 5.28029 0.54725 -2.25954
-5e-05 0.57926 -5e-05 183.30245 0 -3.87195 0.94624 2.78181 -6.60774 -29.22868 4.91971 3.21892 -7.14381 -70.60602 -68.72606 22.13646 78.32445 -17.56373 -2.18585 3.84103 64.4832 61.40634 21.74819 -74.63112 -28.66803 2.19219 -4.02678 2.47341 6.90196 -6.19607 -2.07892 -2.66027 -5.79779 -0.95731 6.49611 -5.92629 -7.69341 5.28368 0.53671 -2.27668
-0.0001 0.57925 -0.0001 183.30144 0 -3.87254 0.95362 2.77537 -6.6171 -29.30003 4.93163 3.20999 -7.01814 -70.60812 -68.66341 22.14127 78.26291 -17.55313 -2.20009 3.90546 64.45883 61.38979 21.72897 -74.81664 -28.60911 2.17427 -4.02943 2.47672 6.87448 -6.1986 -2.07226 -2.65769 -5.76829 -0.95717 6.50162 -5.90976 -7.70363 5.28711 0.52634 -2.2934
-0.00015 0.57925 -0.00015 183.30004 0 -3.87316 0.96087 2.76893 -6.62617 -29.37101 4.94321 3.20123 -6.89362 -70.60953 -68.60185 22.14589 78.20407 -17.54192 -2.21469 3.96889 64.43485 61.37378 21.71019 -74.99841 -28.55166 2.15702 -4.03219 2.48008 6.84758 -6.2008 -2.06583 -2.65517 -5.73922 -0.95726 6.50708 -5.89447 -7.71359 5.29075 0.51658 -2.30857
-0.0002 0.57924 -0.0002 183.30066 0 -3.8736 0.96879 2.76239 -6.63682 -29.44374 4.95663 3.19164 -6.76323 -70.61474 -68.53449 22.15147 78.13104 -17.53378 -2.22752 4.03736 64.40888 61.35537 21.68932 -75.20002 -28.48679 2.13615 -4.0343 2.48319 6.81721 -6.20479 -2.05833 -2.65236 -5.70754 -0.9561 6.51282 -5.87262 -7.72488 5.2933 0.5036 -2.33189
-0.00025 0.57923 -0.00025 183.29701 0 -3.87442 0.97529 2.75612 -6.6441 -29.5128 4.96611 3.18378 -6.64521 -70.61181 -68.47945 22.15502 78.08804 -17.51928 -2.24398 4.09524 64.38708 61.34174 21.67273 -75.35949 -28.43745 2.12301 -4.03783 2.48683 6.79445 -6.20497 -2.05301 -2.65015 -5.68165 -0.95759 6.51796 -5.86464 -7.73338 5.29814 0.49742 -2.33797
-0.00031 0.57923 -0.00031 183.28111 0 -3.87639 0.97801 2.75004 -6.64199 -29.57241 4.96492 3.1808 -6.56081 -70.58628 -68.45817 22.15288 78.13029 -17.48511 -2.2721 4.12324 64.37728 61.34381 21.66916 -75.40264 -28.43311 2.13117 -4.0453 2.4921 6.79082 -6.19444 -2.05439 -2.64962 -5.66942 -0.96672 6.52163 -5.89634 -7.73382 5.30962 0.51091 -2.29498
-0.00037 0.57922 -0.00036 183.26099 0 -3.87874 0.97929 2.74432 -6.6365 -29.62828 4.95975 3.17952 -6.48887 -70.55253 -68.44931 22.14869 78.20248 -17.44483 -2.30362 4.14074 64.3716 61.35022 21.66971 -75.40332 -28.44409 2.14714 -4.05419 2.49788 6.79513 -6.18012 -2.05785 -2.64968 -5.66336 -0.97845 6.52466 -5.94179 -7.73149 5.32335 0.5311 -2.23487
-0.00044 0.57921 -0.00042 183.24302 0 -3.88089 0.98115 2.7388 -6.63259 -29.68549 4.95625 3.17736 -6.41152 -70.52254 -68.435 22.14551 78.25951 -17.40875 -2.33251 4.16342 64.3637 61.35301 21.66755 -75.42337 -28.44666 2.15958 -4.06243 2.50333 6.79716 -6.16763 -2.05991 -2.64942 -5.65606 -0.98879 6.52787 -5.98012 -7.73068 5.33586 0.54765 -2.18341
-0.0005 0.5792 -0.00049 183.22392 0 -3.88318 0.98332 2.7318 -6.62845 -29.74416 4.95324 3.17569 -6.33323 -70.49236 -68.4201 22.14203 78.32309 -17.36686 -2.36587 4.18416 64.35725 61.36281 21.66881 -75.44293 -28.45519 2.17198 -4.07073 2.50921 6.79396 -6.1546 -2.06383 -2.64937 -5.64249 -1.00005 6.53158 -6.02226 -7.72883 5.34922 0.56671 -2.12804
-0.00056 0.57919 -0.00053 183.20634 0 -3.88523 0.9845 2.72791 -6.62405 -29.79894 4.94836 3.17339 -6.25971 -70.46071 -68.40908 22.13863 78.38014 -17.33537 -2.39087 4.20671 64.34876 61.35897 21.66405 -75.45364 -28.45512 2.18626 -4.0792 2.51429 6.80307 -6.14191 -2.06443 -2.64905 -5.64304 -1.00999 6.53407 -6.05958 -7.72844 5.3613 0.58216 -2.07707
-0.00061 0.57919 -0.00054 183.19252 0 -3.88672 0.98332 2.7329 -6.61917 -29.8435 4.93859 3.16909 -6.19737 -70.42621 -68.40821 22.13663 78.41185 -17.33628 -2.39081 4.23484 64.33372 61.31684 21.64067 -75.44871 -28.42632 2.20442 -4.08823 2.51736 6.8483 -6.12993 -2.05479 -2.64762 -5.68471 -1.01581 6.53344 -6.08145 -7.73324 5.36965 0.5858 -2.03961
-0.00067 0.57918 -0.00053 183.18064 0 -3.8879 0.98119 2.74093 -6.61424 -29.88433 4.92721 3.16408 -6.13909 -70.39065 -68.41025 22.13471 78.43596 -17.34748 -2.38241 4.26558 64.31649 61.26069 21.61128 -75.4367 -28.38861 2.22412 -4.09732 2.51956 6.90492 -6.11861 -2.04184 -2.64594 -5.73978 -1.02016 6.53156 -6.09781 -7.73952 5.37655 0.58561 -2.00765
-0.00072 0.57917 -0.00053 183.1688 0 -3.88908 0.97948 2.74729 -6.60972 -29.92708 4.91705 3.1593 -6.07837 -70.35611 -68.40948 22.13229 78.46356 -17.35251 -2.37862 4.29639 64.30021 61.21074 21.58527 -75.42888 -28.35575 2.24268 -4.10608 2.52195 6.95363 -6.10777 -2.03076 -2.64454 -5.78626 -1.02507 6.53019 -6.11584 -7.74478 5.38388 0.58729 -1.97507
-0.00077 0.57917 -0.00053 183.15289 0 -3.89089 0.97777 2.75486 -6.6035 -29.96871 4.90473 3.15495 -6.02104 -70.31904 -68.41586 22.1316 78.49209 -17.36357 -2.3716 4.32137 64.28425 61.16191 21.55662 -75.41518 -28.3199 2.26327 -4.11611 2.5252 7.01403 -6.09358 -2.0182 -2.64248 -5.84324 -1.03054 6.52909 -6.13771 -7.75138 5.39226 0.58867 -1.9341
-0.00082 0.57916 -0.00052 183.146 0 -3.89129 0.97587 2.76063 -6.60082 -30.0119 4.89656 3.14953 -5.95691 -70.28707 -68.40732 22.12754 78.51645 -17.36469 -2.36915 4.35945 64.26706 61.10707 21.53205 -75.41295 -28.28815 2.28003 -4.12355 2.52645 7.05285 -6.08648 -2.00789 -2.64172 -5.88178 -1.03443 6.5271 -6.15031 -7.75564 5.39806 0.58966 -1.91195
-0.00085 0.57916 -0.00049 183.16327 0 -3.88799 0.97347 2.76075 -6.60815 -30.05968 4.90046 3.14136 -5.87746 -70.26976 -68.36147 22.1125 78.53144 -17.335 -2.38251 4.43125 64.24687 61.04153 21.51979 -75.44144 -28.2679 2.28453 -4.12333 2.52248 7.02783 -6.0996 -2.00472 -2.64468 -5.86336 -1.03473 6.52336 -6.13689 -7.75234 5.39748 0.59067 -1.94201
-0.00087 0.57915 -0.00045 183.18959 0 -3.88327 0.97097 2.75894 -6.61902 -30.10927 4.90858 3.13215 -5.79013 -70.25763 -68.29955 22.09446 78.54232 -17.29514 -2.40056 4.51646 64.22548 60.96993 21.51195 -75.4824 -28.25221 2.2853 -4.12056 2.5165 6.98095 -6.11971 -2.00387 -2.64894 -5.82636 -1.03341 6.51872 -6.11462 -7.74678 5.39432 0.59137 -1.99056
-0.00089 0.57915 -0.00042 183.21204 0 -3.87914 0.96868 2.75796 -6.62818 -30.1585 4.91463 3.12338 -5.70341 -70.24296 -68.24191 22.07876 78.55473 -17.26053 -2.41566 4.59684 64.20478 60.89954 21.5023 -75.51968 -28.23586 2.28861 -4.11927 2.51135 6.94498 -6.13606 -2.00185 -2.65255 -5.7997 -1.03253 6.51428 -6.09748 -7.74274 5.39207 0.59205 -2.02978
-0.00091 0.57914 -0.00038 183.23368 0 -3.87521 0.96569 2.75729 -6.63782 -30.20574 4.92126 3.11465 -5.62937 -70.22897 -68.19721 22.05857 78.56825 -17.22364 -2.43382 4.67221 64.18362 60.8353 21.49143 -75.54846 -28.21391 2.28849 -4.11669 2.50652 6.90522 -6.15482 -2.00024 -2.65639 -5.76569 -1.03278 6.51071 -6.07543 -7.73666 5.39075 0.59322 -2.07332
-0.00093 0.57914 -0.00034 183.25893 0 -3.87056 0.96413 2.75547 -6.64721 -30.25745 4.92774 3.10571 -5.52698 -70.2149 -68.12161 22.04749 78.57867 -17.18893 -2.44697 4.76087 64.16287 60.75682 21.48448 -75.59782 -28.20397 2.29452 -4.11613 2.50056 6.8681 -6.17029 -1.99834 -2.66007 -5.7422 -1.03038 6.50511 -6.06163 -7.73427 5.38703 0.5934 -2.11191
-0.00095 0.57914 -0.00028 183.29364 0 -3.86407 0.96653 2.75108 -6.6558 -30.3224 4.93254 3.09546 -5.3482 -70.19853 -67.96527 22.05861 78.58119 -17.16288 -2.44396 4.88572 64.14579 60.64194 21.48526 -75.70234 -28.23272 2.31915 -4.12244 2.49203 6.84278 -6.17428 -1.99518 -2.66305 -5.75405 -1.02065 6.49414 -6.0724 -7.7427 5.37628 0.59049 -2.13461
-0.00096 0.57915 -0.00021 183.33135 0 -3.85696 0.97039 2.74557 -6.66389 -30.39156 4.93713 3.0852 -5.141 -70.18205 -67.7781 22.07988 78.5811 -17.13926 -2.43606 5.02302 64.12862 60.51272 21.49037 -75.82678 -28.27179 2.34992 -4.13078 2.48243 6.82096 -6.17484 -1.99164 -2.66582 -5.77676 -1.00838 6.48116 -6.09189 -7.75491 5.3634 0.58669 -2.15125
-0.00098 0.57915 -0.00015 183.36652 0 -3.85027 0.97356 2.74048 -6.67167 -30.45791 4.94201 3.07561 -4.947 -70.16618 -67.60479 22.09873 78.58215 -17.11444 -2.43111 5.15273 64.1102 60.38918 21.49471 -75.94143 -28.30235 2.37748 -4.13775 2.47332 6.79804 -6.17739 -1.98823 -2.66864 -5.79322 -0.99756 6.4691 -6.10769 -7.76532 5.35218 0.58359 -2.16908
-0.00099 0.57915 -8e-05 183.40688 0 -3.84293 0.97678 2.7357 -6.68171 -30.52805 4.94619 3.06323 -4.75215 -70.14819 -67.43216 22.10752 78.58219 -17.08985 -2.42295 5.29084 64.09772 60.26896 21.49365 -76.06024 -28.35089 2.40691 -4.14648 2.46414 6.77232 -6.17834 -1.9851 -2.6717 -5.81447 -0.98547 6.45702 -6.12203 -7.77597 5.33796 0.57923 -2.19405
-0.001 0.57915 -1e-05 183.43714 0 -3.83682 0.9803 2.73003 -6.68703 -30.59134 4.95176 3.05661 -4.55163 -70.13445 -67.25025 22.1406 78.58509 -17.06527 -2.42063 5.41452 64.07219 60.1385 21.50543 -76.17419 -28.36225 2.43366 -4.1521 2.45485 6.75353 -6.18173 -1.98125 -2.67421 -5.82874 -0.9754 6.44447 -6.14158 -7.78708 5.32948 0.5773 -2.20264
